<svg xmlns="http://www.w3.org/2000/svg" version="1.1" xmlns:xlink="http://www.w3.org/1999/xlink" xmlns:svgjs="http://svgjs.dev/svgjs" width="1000" height="1000" viewBox="0 0 1000 1000"><rect width="1000" height="1000" fill="#ffffff"></rect><g transform="matrix(0.7,0,0,0.7,150,150)"><svg viewBox="0 0 280 280" data-background-color="#ffffff" preserveAspectRatio="xMidYMid meet" height="1000" width="1000" xmlns="http://www.w3.org/2000/svg" xmlns:xlink="http://www.w3.org/1999/xlink"><g id="tight-bounds" transform="matrix(1,0,0,1,0,0)"><svg viewBox="0 0 280 280" height="280" width="280"><g><svg viewBox="0 0 280 280" height="280" width="280"><g><svg viewBox="0 0 280 280" height="280" width="280"><g id="textblocktransform"><svg viewBox="0 0 280 280" height="280" width="280" id="textblock"><g><svg viewBox="0 0 280 280" height="280" width="280"><g transform="matrix(1,0,0,1,57.50420886156945,57.50420886156945)"><svg viewBox="0 0 164.9915822768611 164.9915822768611" height="164.9915822768611" width="164.9915822768611"><g><circle r="82" cx="82.49579113843055" cy="82.49579113843055" fill="#000000" data-fill-palette-color="accent"></circle><svg xmlns="http://www.w3.org/2000/svg" data-name="Layer 1" viewBox="0 1 48.00000762939453 46" x="24.74873734152917" y="24.748737341529164" width="115.49410759380275" height="115.49410759380275" class="icon-o-0" data-fill-palette-color="quaternary" id="o-0"><path d="M48 26.5A3.5 3.5 0 0 0 44.5 23H44A19.91 19.91 0 0 0 27 4.23V4a3 3 0 0 0-6 0v0.23A19.91 19.91 0 0 0 4.05 23H3.5a3.5 3.5 0 0 0 0 7H8.15l-2.5 2H1a1 1 0 0 0 0 2H6a1 1 0 0 0 0.62-0.22L10 31.05A4.78 4.78 0 0 1 13 30h8.85A2.12 2.12 0 0 1 24 32.13v1.45L16.8 35a1 1 0 1 0 0.4 2l24.11-4.82A3.92 3.92 0 0 1 46 35.35L24.78 44 1 45a1 1 0 0 0 0 2H1l24-1a1.28 1.28 0 0 0 0.34-0.07l22-9A1 1 0 0 0 48 36a5.9 5.9 0 0 0-2.17-4.58 5.84 5.84 0 0 0-4.91-1.22L26 33.18v-1A4.07 4.07 0 0 0 25.39 30H44.5A3.5 3.5 0 0 0 48 26.5ZM22.1 6.1a1 1 0 0 0 0.9-1V4a1 1 0 0 1 2 0V5.11a1 1 0 0 0 0.9 1A18 18 0 0 1 42 23H6A18 18 0 0 1 22.1 6.1ZM13 28H3.5a1.5 1.5 0 0 1 0-3h41a1.5 1.5 0 0 1 0 3H13Z" fill="#ffffff" data-fill-palette-color="quaternary"></path></svg></g></svg></g><path d="M10.565 183.775l26.214-8.982 0.951 2.776-23.815 8.16 5.028 14.675-2.399 0.822zM54.84 209.49c2.061 2.944 2.827 5.864 2.297 8.762-0.535 2.901-2.422 5.486-5.66 7.753v0l-12.879 9.018-1.654-2.363 6.68-4.678-9.991-14.268-6.68 4.678-1.638-2.339 12.878-9.018c3.238-2.267 6.314-3.154 9.227-2.659 2.904 0.493 5.377 2.198 7.42 5.114zM35.71 212.26l9.991 14.268 4.342-3.041c2.529-1.771 3.998-3.734 4.406-5.888 0.409-2.155-0.175-4.358-1.751-6.609v0c-1.573-2.246-3.441-3.545-5.606-3.898-2.164-0.353-4.511 0.356-7.04 2.127v0zM60.783 254.332c-1.654-1.233-3.039-2.677-4.155-4.331-1.117-1.663-1.767-3.235-1.95-4.716v0l2.269-1.122c0.205 1.406 0.789 2.855 1.753 4.345 0.964 1.491 2.155 2.765 3.574 3.823v0c1.985 1.48 3.748 2.226 5.291 2.239 1.537 0.009 2.739-0.568 3.607-1.731v0c0.66-0.886 0.92-1.796 0.779-2.731-0.145-0.93-0.504-1.829-1.078-2.696-0.569-0.873-1.425-1.996-2.567-3.371v0c-1.357-1.676-2.386-3.078-3.088-4.207-0.702-1.129-1.107-2.361-1.216-3.696-0.109-1.335 0.35-2.69 1.376-4.067v0c0.835-1.12 1.891-1.919 3.167-2.394 1.28-0.481 2.739-0.539 4.376-0.174 1.637 0.365 3.365 1.226 5.184 2.582v0c1.27 0.947 2.383 2.047 3.341 3.301 0.954 1.259 1.647 2.527 2.081 3.805v0l-2.188 1.282c-0.476-1.31-1.127-2.513-1.953-3.61-0.835-1.096-1.759-2.021-2.773-2.777v0c-1.947-1.452-3.692-2.168-5.234-2.147-1.544 0.011-2.759 0.611-3.647 1.801v0c-0.66 0.886-0.922 1.799-0.785 2.739 0.142 0.945 0.512 1.863 1.108 2.756 0.605 0.891 1.469 2.021 2.591 3.388v0c1.329 1.613 2.35 2.993 3.064 4.14 0.713 1.137 1.122 2.364 1.228 3.68 0.11 1.311-0.34 2.644-1.35 3.999v0c-0.835 1.12-1.899 1.917-3.19 2.39-1.291 0.473-2.762 0.514-4.411 0.123-1.65-0.392-3.385-1.266-5.204-2.623zM112.03 251.823l-1.814 1.766c-1.975-2.445-4.464-4.363-7.466-5.753v0l-9.003 23.68-2.743-1.043 9.002-23.68c-3.103-0.959-6.249-1.183-9.44-0.674v0l-0.183-2.525c3.931-0.677 7.893-0.256 11.887 1.261v0c4.074 1.549 7.328 3.871 9.76 6.968zM148.697 279.98c-2.061 0.094-4.047-0.144-5.959-0.716-1.918-0.578-3.417-1.382-4.497-2.412v0l1.043-2.306c1.05 0.958 2.42 1.708 4.111 2.25 1.69 0.542 3.42 0.773 5.187 0.691v0c2.473-0.113 4.31-0.654 5.512-1.622 1.195-0.967 1.759-2.176 1.692-3.624v0c-0.051-1.104-0.427-1.972-1.128-2.607-0.702-0.627-1.549-1.095-2.543-1.402-0.994-0.314-2.368-0.641-4.122-0.98v0c-2.112-0.436-3.797-0.868-5.055-1.297-1.259-0.429-2.353-1.125-3.284-2.088-0.93-0.963-1.435-2.302-1.513-4.018v0c-0.064-1.396 0.247-2.683 0.932-3.859 0.685-1.184 1.777-2.153 3.274-2.908 1.498-0.755 3.38-1.184 5.647-1.289v0c1.582-0.073 3.141 0.073 4.676 0.436 1.536 0.369 2.876 0.911 4.022 1.624v0l-0.88 2.378c-1.198-0.711-2.465-1.229-3.799-1.554-1.34-0.318-2.642-0.448-3.905-0.391v0c-2.426 0.111-4.23 0.664-5.41 1.657-1.187 0.987-1.747 2.222-1.678 3.705v0c0.051 1.104 0.427 1.976 1.129 2.616 0.709 0.64 1.577 1.117 2.603 1.429 1.033 0.306 2.417 0.632 4.152 0.979v0c2.05 0.406 3.715 0.826 4.994 1.26 1.272 0.428 2.366 1.117 3.283 2.068 0.916 0.944 1.413 2.26 1.49 3.948v0c0.064 1.396-0.253 2.686-0.952 3.871-0.698 1.184-1.81 2.148-3.335 2.891-1.525 0.743-3.421 1.166-5.687 1.27zM193.408 263.969l1.753 1.751c-0.732 1.381-1.899 2.655-3.502 3.821-1.605 1.16-3.496 2.104-5.674 2.832v0c-2.298 0.767-4.359 1.108-6.183 1.023-1.827-0.092-3.33-0.551-4.511-1.377-1.183-0.833-2.013-1.962-2.49-3.389v0c-0.525-1.572-0.501-3.067 0.071-4.485 0.574-1.412 1.553-2.588 2.936-3.528v0c-1.414-0.054-2.645-0.485-3.694-1.292-1.046-0.801-1.803-1.902-2.271-3.304v0c-0.445-1.332-0.467-2.668-0.065-4.009 0.399-1.347 1.262-2.596 2.589-3.748 1.327-1.152 3.08-2.091 5.257-2.818v0c1.603-0.535 3.223-0.873 4.861-1.013 1.635-0.146 3.102-0.061 4.4 0.256v0l-0.121 2.503c-2.738-0.531-5.483-0.337-8.235 0.583v0c-2.43 0.812-4.134 1.896-5.112 3.254-0.98 1.352-1.223 2.766-0.73 4.243v0c0.493 1.477 1.391 2.443 2.694 2.899 1.309 0.454 2.914 0.363 4.813-0.271v0l6.533-2.182 0.803 2.405-6.646 2.22c-2.152 0.719-3.717 1.694-4.695 2.925-0.978 1.232-1.199 2.649-0.664 4.253v0c0.525 1.572 1.624 2.594 3.297 3.066 1.673 0.473 3.835 0.266 6.487-0.619v0c1.856-0.62 3.498-1.459 4.926-2.519 1.42-1.063 2.478-2.224 3.173-3.48zM229.968 247.519l-2.648 1.805-10.253-3.784c-0.543 0.467-1.131 0.916-1.763 1.347v0l-6.144 4.19 4.949 7.257-2.424 1.654-15.613-22.893 8.568-5.843c2.925-1.995 5.691-2.858 8.298-2.591 2.603 0.262 4.739 1.617 6.408 4.064v0c1.219 1.787 1.797 3.603 1.736 5.449-0.067 1.85-0.754 3.619-2.06 5.307v0zM213.832 244.871c2.271-1.549 3.662-3.235 4.174-5.058 0.516-1.818 0.157-3.631-1.076-5.441v0c-1.264-1.853-2.834-2.868-4.711-3.045-1.873-0.172-3.945 0.516-6.216 2.064v0l-6.078 4.145 7.829 11.48zM233.159 200.41l1.785-2.366 14.729 26.483-1.743 2.311-29.509-6.899 1.906-2.526 25.602 6.027zM266.228 180.971l2.468-0.212c0.585 1.449 0.807 3.163 0.667 5.14-0.147 1.975-0.643 4.03-1.491 6.163v0c-0.894 2.251-1.961 4.047-3.201 5.388-1.247 1.338-2.567 2.192-3.96 2.563-1.399 0.368-2.798 0.275-4.195-0.279v0c-1.54-0.611-2.669-1.592-3.385-2.944-0.711-1.349-0.979-2.855-0.806-4.519v0c-0.952 1.047-2.075 1.711-3.368 1.993-1.287 0.284-2.617 0.154-3.99-0.392v0c-1.305-0.518-2.341-1.362-3.108-2.533-0.773-1.173-1.172-2.638-1.198-4.395-0.026-1.757 0.385-3.703 1.231-5.837v0c0.624-1.571 1.409-3.028 2.357-4.369 0.942-1.345 1.952-2.411 3.032-3.2v0l1.836 1.705c-2.17 1.752-3.79 3.976-4.861 6.674v0c-0.945 2.381-1.213 4.383-0.805 6.006 0.402 1.62 1.327 2.718 2.775 3.292v0c1.447 0.574 2.765 0.51 3.953-0.193 1.191-0.709 2.155-1.994 2.894-3.856v0l2.541-6.401 2.356 0.935-2.585 6.513c-0.837 2.109-1.1 3.934-0.787 5.476 0.312 1.541 1.253 2.624 2.824 3.247v0c1.54 0.611 3.03 0.429 4.469-0.546 1.439-0.975 2.675-2.762 3.706-5.359v0c0.722-1.818 1.138-3.615 1.248-5.39 0.101-1.771-0.104-3.328-0.617-4.67z" fill="#000000" data-fill-palette-color="primary"></path><path d="M30.264 109.829L4.051 100.847 5.002 98.071 28.817 106.231 33.845 91.557 36.244 92.379ZM26.108 57.246C28.169 54.302 30.652 52.584 33.556 52.091 36.466 51.602 39.54 52.491 42.778 54.758V54.758L55.656 63.776 54.001 66.139 47.321 61.461 37.33 75.729 44.01 80.407 42.372 82.746 29.494 73.728C26.256 71.461 24.372 68.874 23.84 65.967 23.31 63.069 24.066 60.162 26.108 57.246ZM35.253 74.275L45.244 60.007 40.902 56.967C38.373 55.196 36.026 54.486 33.862 54.839 31.697 55.192 29.827 56.494 28.25 58.746V58.746C26.678 60.992 26.096 63.192 26.504 65.346 26.913 67.501 28.382 69.464 30.911 71.235V71.235ZM73.516 49.601C71.863 50.834 70.084 51.749 68.18 52.347 66.267 52.943 64.575 53.117 63.104 52.869V52.869L62.676 50.375C64.082 50.58 65.637 50.433 67.341 49.935 69.044 49.436 70.606 48.658 72.025 47.6V47.6C74.009 46.12 75.228 44.643 75.681 43.168 76.128 41.698 75.918 40.381 75.051 39.218V39.218C74.391 38.332 73.592 37.823 72.655 37.692 71.723 37.565 70.759 37.653 69.764 37.955 68.765 38.252 67.444 38.751 65.801 39.453V39.453C63.808 40.275 62.169 40.862 60.887 41.212 59.604 41.563 58.308 41.6 56.998 41.323 55.687 41.047 54.519 40.22 53.493 38.844V38.844C52.657 37.723 52.194 36.484 52.102 35.124 52.006 33.76 52.366 32.346 53.184 30.881 54.001 29.417 55.319 28.006 57.139 26.65V26.65C58.408 25.703 59.781 24.95 61.255 24.39 62.734 23.835 64.148 23.532 65.496 23.481V23.481L66.1 25.944C64.709 26.027 63.37 26.307 62.083 26.786 60.795 27.273 59.644 27.895 58.63 28.651V28.651C56.683 30.102 55.499 31.57 55.078 33.055 54.648 34.537 54.877 35.874 55.764 37.063V37.063C56.424 37.949 57.224 38.46 58.165 38.597 59.111 38.73 60.097 38.639 61.123 38.322 62.15 37.996 63.479 37.491 65.11 36.806V36.806C67.035 35.993 68.649 35.408 69.952 35.051 71.245 34.692 72.538 34.65 73.829 34.924 75.117 35.192 76.266 36.004 77.276 37.359V37.359C78.111 38.48 78.572 39.726 78.657 41.098 78.742 42.471 78.362 43.892 77.515 45.361 76.669 46.831 75.336 48.244 73.516 49.601ZM101.73 7.937L101.547 10.463C98.446 9.947 95.312 10.167 92.144 11.122V11.122L101.147 34.803 98.404 35.846 89.401 12.165C86.445 13.509 83.944 15.432 81.897 17.933V17.933L80.083 16.166C82.571 13.049 85.812 10.731 89.806 9.213V9.213C93.88 7.664 97.855 7.239 101.73 7.937ZM147.721 28.155C145.66 28.061 143.704 27.641 141.853 26.897 139.996 26.145 138.577 25.208 137.596 24.084V24.084L138.846 21.883C139.803 22.932 141.099 23.805 142.733 24.499 144.366 25.193 146.067 25.581 147.835 25.662V25.662C150.308 25.776 152.187 25.405 153.472 24.552 154.75 23.698 155.423 22.546 155.489 21.097V21.097C155.54 19.993 155.244 19.094 154.604 18.398 153.962 17.709 153.161 17.166 152.2 16.769 151.239 16.365 149.901 15.914 148.185 15.416V15.416C146.122 14.788 144.484 14.204 143.269 13.662 142.055 13.12 141.029 12.327 140.191 11.282 139.353 10.238 138.973 8.858 139.052 7.143V7.143C139.116 5.747 139.543 4.494 140.333 3.385 141.124 2.269 142.299 1.403 143.86 0.789 145.42 0.174 147.334-0.081 149.6 0.023V0.023C151.183 0.095 152.722 0.382 154.217 0.884 155.713 1.392 156.998 2.054 158.073 2.869V2.869L156.979 5.157C155.851 4.339 154.637 3.708 153.339 3.262 152.033 2.822 150.749 2.573 149.486 2.515V2.515C147.06 2.404 145.213 2.789 143.947 3.67 142.675 4.545 142.005 5.723 141.937 7.206V7.206C141.886 8.309 142.181 9.212 142.822 9.914 143.469 10.617 144.29 11.17 145.284 11.576 146.285 11.975 147.633 12.426 149.328 12.93V12.93C151.333 13.522 152.952 14.092 154.186 14.642 155.414 15.184 156.44 15.971 157.266 17.001 158.091 18.025 158.466 19.381 158.388 21.07V21.07C158.324 22.466 157.89 23.722 157.086 24.837 156.282 25.953 155.087 26.811 153.501 27.411 151.915 28.011 149.988 28.259 147.721 28.155ZM190.221 32.43L190.57 34.883C189.155 35.547 187.457 35.864 185.474 35.834 183.494 35.797 181.415 35.415 179.238 34.688V34.688C176.94 33.92 175.088 32.954 173.681 31.79 172.275 30.619 171.349 29.349 170.902 27.978 170.456 26.602 170.472 25.2 170.948 23.774V23.774C171.473 22.202 172.39 21.021 173.7 20.231 175.007 19.446 176.496 19.095 178.167 19.176V19.176C177.069 18.283 176.343 17.199 175.99 15.923 175.636 14.654 175.692 13.319 176.16 11.917V11.917C176.605 10.586 177.39 9.504 178.517 8.674 179.645 7.837 181.086 7.357 182.839 7.234 184.592 7.11 186.557 7.412 188.735 8.14V8.14C190.338 8.675 191.836 9.379 193.228 10.251 194.623 11.116 195.744 12.066 196.592 13.1V13.1L194.99 15.028C193.121 12.958 190.81 11.464 188.058 10.545V10.545C185.628 9.733 183.614 9.576 182.016 10.074 180.421 10.566 179.377 11.55 178.883 13.027V13.027C178.39 14.504 178.527 15.816 179.295 16.963 180.069 18.113 181.405 19.005 183.305 19.639V19.639L189.838 21.821 189.035 24.226 182.389 22.006C180.236 21.287 178.399 21.126 176.878 21.523 175.356 21.92 174.327 22.92 173.792 24.523V24.523C173.267 26.095 173.531 27.573 174.585 28.956 175.638 30.339 177.491 31.473 180.142 32.358V32.358C181.997 32.978 183.814 33.294 185.593 33.305 187.367 33.308 188.909 33.017 190.221 32.43ZM218.235 56.539L215.588 54.734 215.368 43.806C214.735 43.471 214.102 43.088 213.47 42.657V42.657L207.326 38.467 202.377 45.724 199.952 44.07 215.565 21.177 224.133 27.021C227.058 29.016 228.872 31.276 229.574 33.801 230.28 36.32 229.799 38.803 228.131 41.25V41.25C226.912 43.036 225.432 44.238 223.691 44.855 221.943 45.468 220.046 45.474 217.998 44.875V44.875ZM214.81 40.55C217.08 42.099 219.158 42.778 221.043 42.59 222.924 42.407 224.481 41.411 225.714 39.602V39.602C226.978 37.749 227.35 35.916 226.83 34.104 226.306 32.297 224.909 30.619 222.639 29.071V29.071L216.561 24.926 208.732 36.405ZM260.774 65.605L262.56 67.972 233.052 74.871 231.308 72.56 246.037 46.076 247.943 48.602 235.124 71.568ZM256.875 109.595L255.224 111.443C253.804 110.789 252.468 109.694 251.214 108.158 249.966 106.62 248.919 104.784 248.072 102.65V102.65C247.179 100.399 246.724 98.36 246.708 96.533 246.698 94.704 247.073 93.177 247.832 91.952 248.598 90.725 249.68 89.834 251.078 89.279V89.279C252.618 88.668 254.112 88.608 255.56 89.1 257.002 89.595 258.231 90.507 259.245 91.837V91.837C259.221 90.422 259.582 89.169 260.331 88.077 261.072 86.988 262.13 86.171 263.503 85.626V85.626C264.808 85.108 266.141 85.012 267.502 85.338 268.869 85.662 270.165 86.455 271.388 87.716 272.612 88.977 273.647 90.675 274.494 92.809V92.809C275.118 94.38 275.545 95.979 275.775 97.606 276.012 99.23 276.008 100.699 275.763 102.013V102.013L273.257 102.031C273.635 99.267 273.289 96.537 272.219 93.841V93.841C271.274 91.459 270.096 89.818 268.686 88.917 267.282 88.014 265.857 87.849 264.409 88.424V88.424C262.962 88.998 262.047 89.948 261.664 91.274 261.283 92.607 261.463 94.204 262.201 96.066V96.066L264.742 102.467 262.385 103.403 259.801 96.889C258.964 94.78 257.903 93.272 256.619 92.364 255.335 91.456 253.908 91.313 252.337 91.937V91.937C250.796 92.548 249.837 93.702 249.458 95.399 249.079 97.096 249.405 99.243 250.436 101.841V101.841C251.157 103.66 252.087 105.252 253.224 106.62 254.364 107.978 255.581 108.97 256.875 109.595Z" fill="#000000" data-fill-palette-color="primary"></path><path d="M11.635 143.427c0-1.769 1.434-3.203 3.203-3.203 1.769 0 3.203 1.434 3.203 3.203 0 1.769-1.434 3.203-3.203 3.203-1.769 0-3.203-1.434-3.203-3.203zM263.185 143.427c0-1.769 1.434-3.203 3.203-3.203 1.769 0 3.203 1.434 3.203 3.203 0 1.769-1.434 3.203-3.203 3.203-1.769 0-3.203-1.434-3.203-3.203z" fill="#000000" data-fill-palette-color="primary"></path></svg></g></svg></g></svg></g><g></g></svg></g><defs></defs></svg><rect width="280" height="280" fill="none" stroke="none" visibility="hidden"></rect></g></svg></g></svg>